<svg width="31" height="30" viewBox="0 0 31 30" fill="none" xmlns="http://www.w3.org/2000/svg">
<path d="M15.0627 0C19.9628 6.65899e-05 24.3168 2.3303 27.0676 5.93848C26.1283 5.35354 25.021 5.01258 23.8391 5C20.4399 5.00494 17.6758 7.71959 17.632 11.0889L14.1506 15.3105C12.9868 15.1421 11.8029 15.3928 10.8137 16.0137L6.98358 14.29C6.82361 14.2179 3.82922 13.1311 3.68182 13.2217C3.53138 13.3179 3.06366 13.3532 3.06366 13.5312L3.46503 19.8037C0.897356 19.0552 6.38572 21.3346 6.60468 21.4043L8.62225 22.0684C9.52909 24.7446 12.4534 26.1794 15.1447 25.2744C16.8999 24.6871 18.1999 23.2092 18.5539 21.4043L24.3537 17.2891C27.186 17.0212 29.3883 14.9073 29.8742 12.2598C30.0389 13.1483 30.1262 14.064 30.1262 15C30.1262 23.2842 23.3816 29.9999 15.0627 30C6.74385 29.9998 0.000183105 23.2841 0.000183105 15C0.000183105 6.71587 6.74385 0.000234564 15.0627 0ZM13.6799 17.5938C13.8059 17.3387 14.1114 17.2333 14.3732 17.3584C15.9153 18.0997 16.5653 19.9381 15.8185 21.4736C15.4597 22.21 14.8247 22.7734 14.0441 23.043C13.7047 23.1537 13.36 23.2109 13.006 23.2109C12.5407 23.2109 12.0802 23.1054 11.6633 22.9033C11.4063 22.7782 11.299 22.4747 11.425 22.2148C11.551 21.9599 11.8566 21.8537 12.1183 21.9785C13.1318 22.4984 14.3837 22.1085 14.9074 21.0977C15.4308 20.0869 15.0379 18.8499 14.0197 18.3301C13.9859 18.3109 13.952 18.2966 13.9182 18.2822C13.6612 18.1571 13.5539 17.8537 13.6799 17.5938ZM23.3547 7.80762C25.0684 7.80799 26.4581 9.18756 26.4582 10.8887C26.458 12.5897 25.0683 13.9684 23.3547 13.9688C21.6407 13.9688 20.2514 12.5899 20.2512 10.8887C20.2512 9.18733 21.6406 7.80762 23.3547 7.80762ZM23.3107 9C22.2047 9 21.3079 9.8955 21.3078 11C21.3079 12.1045 22.2047 13 23.3107 13C24.4166 12.9998 25.3135 12.1043 25.3137 11C25.3136 9.89561 24.4166 9.00018 23.3107 9Z" fill="#FAF8F5"/>
</svg>
